<?xml version="1.0" encoding="UTF-8" standalone="no"?>
<!DOCTYPE svg PUBLIC "-//W3C//DTD SVG 1.1//EN"
 "http://www.w3.org/Graphics/SVG/1.1/DTD/svg11.dtd">
<!-- Generated by graphviz version 2.38.0 (20140413.2041)
 -->
<!-- Title: controllers_diagram Pages: 1 -->
<svg width="603pt" height="615pt"
 viewBox="0.00 0.00 603.50 615.00" xmlns="http://www.w3.org/2000/svg" xmlns:xlink="http://www.w3.org/1999/xlink">
<g id="graph0" class="graph" transform="scale(1 1) rotate(0) translate(259.5 371.5)">
<title>controllers_diagram</title>
<polygon fill="none" stroke="none" points="-259.5,243.5 -259.5,-371.5 344,-371.5 344,243.5 -259.5,243.5"/>
<!-- _diagram_info -->
<g id="node1" class="node"><title>_diagram_info</title>
<text text-anchor="start" x="-152" y="-223.6" font-family="Times,serif" font-size="13.00">Controllers diagram</text>
<text text-anchor="start" x="-152" y="-209.6" font-family="Times,serif" font-size="13.00">Date: May 21 2017 &#45; 01:59</text>
<text text-anchor="start" x="-152" y="-195.6" font-family="Times,serif" font-size="13.00">Migration version: 20170521042926</text>
<text text-anchor="start" x="-152" y="-181.6" font-family="Times,serif" font-size="13.00">Generated by RailRoady 1.5.2</text>
<text text-anchor="start" x="-152" y="-167.6" font-family="Times,serif" font-size="13.00">http://railroady.prestonlee.com</text>
</g>
<!-- CommentsController -->
<g id="node2" class="node"><title>CommentsController</title>
<path fill="none" stroke="black" d="M220,-208.5C220,-208.5 328,-208.5 328,-208.5 334,-208.5 340,-214.5 340,-220.5 340,-220.5 340,-349.5 340,-349.5 340,-355.5 334,-361.5 328,-361.5 328,-361.5 220,-361.5 220,-361.5 214,-361.5 208,-355.5 208,-349.5 208,-349.5 208,-220.5 208,-220.5 208,-214.5 214,-208.5 220,-208.5"/>
<text text-anchor="middle" x="274" y="-346.3" font-family="Times,serif" font-size="14.00">CommentsController</text>
<polyline fill="none" stroke="black" points="208,-338.5 340,-338.5 "/>
<text text-anchor="start" x="216" y="-323.3" font-family="Times,serif" font-size="14.00">create</text>
<text text-anchor="start" x="216" y="-308.3" font-family="Times,serif" font-size="14.00">destroy</text>
<text text-anchor="start" x="216" y="-293.3" font-family="Times,serif" font-size="14.00">edit</text>
<text text-anchor="start" x="216" y="-278.3" font-family="Times,serif" font-size="14.00">index</text>
<text text-anchor="start" x="216" y="-263.3" font-family="Times,serif" font-size="14.00">update</text>
<polyline fill="none" stroke="black" points="208,-255.5 340,-255.5 "/>
<polyline fill="none" stroke="black" points="208,-231.5 340,-231.5 "/>
<text text-anchor="start" x="216" y="-216.3" font-family="Times,serif" font-size="14.00">_layout</text>
</g>
<!-- Users::RegistrationsController -->
<g id="node3" class="node"><title>Users::RegistrationsController</title>
<path fill="none" stroke="black" d="M76,63C76,63 258,63 258,63 264,63 270,57 270,51 270,51 270,-33 270,-33 270,-39 264,-45 258,-45 258,-45 76,-45 76,-45 70,-45 64,-39 64,-33 64,-33 64,51 64,51 64,57 70,63 76,63"/>
<text text-anchor="middle" x="167" y="-29.8" font-family="Times,serif" font-size="14.00">Users::RegistrationsController</text>
<polyline fill="none" stroke="black" points="64,-22 270,-22 "/>
<polyline fill="none" stroke="black" points="64,2 270,2 "/>
<text text-anchor="start" x="72" y="17.2" font-family="Times,serif" font-size="14.00">configure_account_update_params</text>
<text text-anchor="start" x="72" y="32.2" font-family="Times,serif" font-size="14.00">configure_sign_up_params</text>
<polyline fill="none" stroke="black" points="64,40 270,40 "/>
<text text-anchor="start" x="72" y="55.2" font-family="Times,serif" font-size="14.00">_layout</text>
</g>
<!-- Users::PasswordsController -->
<g id="node4" class="node"><title>Users::PasswordsController</title>
<path fill="none" stroke="black" d="M-228.5,239C-228.5,239 -85.5,239 -85.5,239 -79.5,239 -73.5,233 -73.5,227 -73.5,227 -73.5,157 -73.5,157 -73.5,151 -79.5,145 -85.5,145 -85.5,145 -228.5,145 -228.5,145 -234.5,145 -240.5,151 -240.5,157 -240.5,157 -240.5,227 -240.5,227 -240.5,233 -234.5,239 -228.5,239"/>
<text text-anchor="middle" x="-157" y="160.2" font-family="Times,serif" font-size="14.00">Users::PasswordsController</text>
<polyline fill="none" stroke="black" points="-240.5,168 -73.5,168 "/>
<polyline fill="none" stroke="black" points="-240.5,192 -73.5,192 "/>
<polyline fill="none" stroke="black" points="-240.5,216 -73.5,216 "/>
<text text-anchor="start" x="-232.5" y="231.2" font-family="Times,serif" font-size="14.00">_layout</text>
</g>
<!-- Users::UnlocksController -->
<g id="node5" class="node"><title>Users::UnlocksController</title>
<path fill="none" stroke="black" d="M-243.5,-33C-243.5,-33 -112.5,-33 -112.5,-33 -106.5,-33 -100.5,-39 -100.5,-45 -100.5,-45 -100.5,-115 -100.5,-115 -100.5,-121 -106.5,-127 -112.5,-127 -112.5,-127 -243.5,-127 -243.5,-127 -249.5,-127 -255.5,-121 -255.5,-115 -255.5,-115 -255.5,-45 -255.5,-45 -255.5,-39 -249.5,-33 -243.5,-33"/>
<text text-anchor="middle" x="-178" y="-111.8" font-family="Times,serif" font-size="14.00">Users::UnlocksController</text>
<polyline fill="none" stroke="black" points="-255.5,-104 -100.5,-104 "/>
<polyline fill="none" stroke="black" points="-255.5,-80 -100.5,-80 "/>
<polyline fill="none" stroke="black" points="-255.5,-56 -100.5,-56 "/>
<text text-anchor="start" x="-247.5" y="-40.8" font-family="Times,serif" font-size="14.00">_layout</text>
</g>
<!-- Users::ConfirmationsController -->
<g id="node6" class="node"><title>Users::ConfirmationsController</title>
<path fill="none" stroke="black" d="M76.5,191C76.5,191 241.5,191 241.5,191 247.5,191 253.5,185 253.5,179 253.5,179 253.5,109 253.5,109 253.5,103 247.5,97 241.5,97 241.5,97 76.5,97 76.5,97 70.5,97 64.5,103 64.5,109 64.5,109 64.5,179 64.5,179 64.5,185 70.5,191 76.5,191"/>
<text text-anchor="middle" x="159" y="112.2" font-family="Times,serif" font-size="14.00">Users::ConfirmationsController</text>
<polyline fill="none" stroke="black" points="64.5,120 253.5,120 "/>
<polyline fill="none" stroke="black" points="64.5,144 253.5,144 "/>
<polyline fill="none" stroke="black" points="64.5,168 253.5,168 "/>
<text text-anchor="start" x="72.5" y="183.2" font-family="Times,serif" font-size="14.00">_layout</text>
</g>
<!-- Users::OmniauthCallbacksController -->
<g id="node7" class="node"><title>Users::OmniauthCallbacksController</title>
<path fill="none" stroke="black" d="M92,-81C92,-81 286,-81 286,-81 292,-81 298,-87 298,-93 298,-93 298,-163 298,-163 298,-169 292,-175 286,-175 286,-175 92,-175 92,-175 86,-175 80,-169 80,-163 80,-163 80,-93 80,-93 80,-87 86,-81 92,-81"/>
<text text-anchor="middle" x="189" y="-159.8" font-family="Times,serif" font-size="14.00">Users::OmniauthCallbacksController</text>
<polyline fill="none" stroke="black" points="80,-152 298,-152 "/>
<polyline fill="none" stroke="black" points="80,-128 298,-128 "/>
<polyline fill="none" stroke="black" points="80,-104 298,-104 "/>
<text text-anchor="start" x="88" y="-88.8" font-family="Times,serif" font-size="14.00">_layout</text>
</g>
<!-- Users::SessionsController -->
<g id="node8" class="node"><title>Users::SessionsController</title>
<path fill="none" stroke="black" d="M-243.5,95C-243.5,95 -110.5,95 -110.5,95 -104.5,95 -98.5,89 -98.5,83 -98.5,83 -98.5,13 -98.5,13 -98.5,7 -104.5,1 -110.5,1 -110.5,1 -243.5,1 -243.5,1 -249.5,1 -255.5,7 -255.5,13 -255.5,13 -255.5,83 -255.5,83 -255.5,89 -249.5,95 -243.5,95"/>
<text text-anchor="middle" x="-177" y="16.2" font-family="Times,serif" font-size="14.00">Users::SessionsController</text>
<polyline fill="none" stroke="black" points="-255.5,24 -98.5,24 "/>
<polyline fill="none" stroke="black" points="-255.5,48 -98.5,48 "/>
<polyline fill="none" stroke="black" points="-255.5,72 -98.5,72 "/>
<text text-anchor="start" x="-247.5" y="87.2" font-family="Times,serif" font-size="14.00">_layout</text>
</g>
<!-- PostsController -->
<g id="node9" class="node"><title>PostsController</title>
<path fill="none" stroke="black" d="M-51.5,111.5C-51.5,111.5 25.5,111.5 25.5,111.5 31.5,111.5 37.5,105.5 37.5,99.5 37.5,99.5 37.5,-89.5 37.5,-89.5 37.5,-95.5 31.5,-101.5 25.5,-101.5 25.5,-101.5 -51.5,-101.5 -51.5,-101.5 -57.5,-101.5 -63.5,-95.5 -63.5,-89.5 -63.5,-89.5 -63.5,99.5 -63.5,99.5 -63.5,105.5 -57.5,111.5 -51.5,111.5"/>
<text text-anchor="middle" x="-13" y="-86.3" font-family="Times,serif" font-size="14.00">PostsController</text>
<polyline fill="none" stroke="black" points="-63.5,-78.5 37.5,-78.5 "/>
<text text-anchor="start" x="-55.5" y="-63.3" font-family="Times,serif" font-size="14.00">create</text>
<text text-anchor="start" x="-55.5" y="-48.3" font-family="Times,serif" font-size="14.00">destroy</text>
<text text-anchor="start" x="-55.5" y="-33.3" font-family="Times,serif" font-size="14.00">edit</text>
<text text-anchor="start" x="-55.5" y="-18.3" font-family="Times,serif" font-size="14.00">index</text>
<text text-anchor="start" x="-55.5" y="-3.3" font-family="Times,serif" font-size="14.00">new</text>
<text text-anchor="start" x="-55.5" y="11.7" font-family="Times,serif" font-size="14.00">show</text>
<text text-anchor="start" x="-55.5" y="26.7" font-family="Times,serif" font-size="14.00">update</text>
<polyline fill="none" stroke="black" points="-63.5,34.5 37.5,34.5 "/>
<polyline fill="none" stroke="black" points="-63.5,58.5 37.5,58.5 "/>
<text text-anchor="start" x="-55.5" y="73.7" font-family="Times,serif" font-size="14.00">_layout</text>
<text text-anchor="start" x="-55.5" y="88.7" font-family="Times,serif" font-size="14.00">post_params</text>
<text text-anchor="start" x="-55.5" y="103.7" font-family="Times,serif" font-size="14.00">set_post</text>
</g>
<!-- ApplicationController -->
<g id="node10" class="node"><title>ApplicationController</title>
<path fill="none" stroke="black" d="M44,-273C44,-273 156,-273 156,-273 162,-273 168,-279 168,-285 168,-285 168,-355 168,-355 168,-361 162,-367 156,-367 156,-367 44,-367 44,-367 38,-367 32,-361 32,-355 32,-355 32,-285 32,-285 32,-279 38,-273 44,-273"/>
<text text-anchor="middle" x="100" y="-351.8" font-family="Times,serif" font-size="14.00">ApplicationController</text>
<polyline fill="none" stroke="black" points="32,-344 168,-344 "/>
<polyline fill="none" stroke="black" points="32,-320 168,-320 "/>
<polyline fill="none" stroke="black" points="32,-296 168,-296 "/>
<text text-anchor="start" x="40" y="-280.8" font-family="Times,serif" font-size="14.00">_layout</text>
</g>
</g>
</svg>
