<?xml version="1.0" encoding="UTF-8" standalone="no"?>
<!DOCTYPE svg PUBLIC "-//W3C//DTD SVG 1.1//EN"
 "http://www.w3.org/Graphics/SVG/1.1/DTD/svg11.dtd">
<!-- Generated by graphviz version 2.38.0 (20140413.2041)
 -->
<!-- Title: models_diagram Pages: 1 -->
<svg width="512pt" height="158pt"
 viewBox="0.00 0.00 512.00 158.00" xmlns="http://www.w3.org/2000/svg" xmlns:xlink="http://www.w3.org/1999/xlink">
<g id="graph0" class="graph" transform="scale(1 1) rotate(0) translate(4 154)">
<title>models_diagram</title>
<polygon fill="none" stroke="none" points="-4,4 -4,-154 508,-154 508,4 -4,4"/>
<!-- _diagram_info -->
<g id="node1" class="node"><title>_diagram_info</title>
<text text-anchor="start" x="8" y="-135.6" font-family="Times,serif" font-size="13.00">Models diagram</text>
<text text-anchor="start" x="8" y="-121.6" font-family="Times,serif" font-size="13.00">Date: May 21 2017 &#45; 01:59</text>
<text text-anchor="start" x="8" y="-107.6" font-family="Times,serif" font-size="13.00">Migration version: 20170521042926</text>
<text text-anchor="start" x="8" y="-93.6" font-family="Times,serif" font-size="13.00">Generated by RailRoady 1.5.2</text>
<text text-anchor="start" x="8" y="-79.6" font-family="Times,serif" font-size="13.00">http://railroady.prestonlee.com</text>
</g>
<!-- ApplicationRecord -->
<g id="node2" class="node"><title>ApplicationRecord</title>
<ellipse fill="none" stroke="black" cx="309" cy="-111" rx="77.1866" ry="18"/>
<text text-anchor="middle" x="309" y="-107.3" font-family="Times,serif" font-size="14.00">ApplicationRecord</text>
</g>
<!-- Comment -->
<g id="node3" class="node"><title>Comment</title>
<ellipse fill="none" stroke="black" cx="386" cy="-18" rx="46.2923" ry="18"/>
<text text-anchor="middle" x="386" y="-14.3" font-family="Times,serif" font-size="14.00">Comment</text>
</g>
<!-- Post -->
<g id="node4" class="node"><title>Post</title>
<ellipse fill="none" stroke="black" cx="477" cy="-18" rx="27" ry="18"/>
<text text-anchor="middle" x="477" y="-14.3" font-family="Times,serif" font-size="14.00">Post</text>
</g>
<!-- User -->
<g id="node5" class="node"><title>User</title>
<ellipse fill="none" stroke="black" cx="432" cy="-111" rx="27.0966" ry="18"/>
<text text-anchor="middle" x="432" y="-107.3" font-family="Times,serif" font-size="14.00">User</text>
</g>
<!-- User&#45;&gt;Comment -->
<g id="edge2" class="edge"><title>User&#45;&gt;Comment</title>
<path fill="none" stroke="#88f8c9" d="M420.05,-86.3589C413.591,-73.5825 405.608,-57.7898 398.995,-44.7082"/>
<ellipse fill="none" stroke="#88f8c9" cx="421.972" cy="-90.1612" rx="4.00002" ry="4.00002"/>
<polygon fill="#88f8c9" stroke="#88f8c9" points="398.975,-44.6684 398.48,-33.7137 396.72,-40.2061 394.464,-35.7438 394.464,-35.7438 394.464,-35.7438 396.72,-40.2061 390.448,-37.7739 398.975,-44.6684 398.975,-44.6684"/>
</g>
<!-- User&#45;&gt;Post -->
<g id="edge1" class="edge"><title>User&#45;&gt;Post</title>
<path fill="none" stroke="#fb7e29" d="M443.715,-86.3102C450.076,-73.4462 457.944,-57.5355 464.433,-44.4135"/>
<ellipse fill="none" stroke="#fb7e29" cx="441.818" cy="-90.1455" rx="4.00002" ry="4.00002"/>
<polygon fill="#fb7e29" stroke="#fb7e29" points="464.44,-44.3988 472.907,-37.4297 466.656,-39.9169 468.873,-35.4349 468.873,-35.4349 468.873,-35.4349 466.656,-39.9169 464.839,-33.4402 464.44,-44.3988 464.44,-44.3988"/>
</g>
</g>
</svg>
