<?xml version="1.0" encoding="UTF-8" standalone="no"?>
<!DOCTYPE svg PUBLIC "-//W3C//DTD SVG 1.1//EN"
 "http://www.w3.org/Graphics/SVG/1.1/DTD/svg11.dtd">
<!-- Generated by graphviz version 2.38.0 (20140413.2041)
 -->
<!-- Title: models_diagram Pages: 1 -->
<svg width="822pt" height="423pt"
 viewBox="0.00 0.00 822.00 423.00" xmlns="http://www.w3.org/2000/svg" xmlns:xlink="http://www.w3.org/1999/xlink">
<g id="graph0" class="graph" transform="scale(1 1) rotate(0) translate(4 419)">
<title>models_diagram</title>
<polygon fill="none" stroke="none" points="-4,4 -4,-419 818,-419 818,4 -4,4"/>
<!-- _diagram_info -->
<g id="node1" class="node"><title>_diagram_info</title>
<text text-anchor="start" x="8" y="-311.1" font-family="Times,serif" font-size="13.00">Models diagram</text>
<text text-anchor="start" x="8" y="-297.1" font-family="Times,serif" font-size="13.00">Date: May 21 2017 &#45; 01:59</text>
<text text-anchor="start" x="8" y="-283.1" font-family="Times,serif" font-size="13.00">Migration version: 20170521042926</text>
<text text-anchor="start" x="8" y="-269.1" font-family="Times,serif" font-size="13.00">Generated by RailRoady 1.5.2</text>
<text text-anchor="start" x="8" y="-255.1" font-family="Times,serif" font-size="13.00">http://railroady.prestonlee.com</text>
</g>
<!-- ApplicationRecord -->
<g id="node2" class="node"><title>ApplicationRecord</title>
<ellipse fill="none" stroke="black" cx="309" cy="-286.5" rx="77.1866" ry="18"/>
<text text-anchor="middle" x="309" y="-282.8" font-family="Times,serif" font-size="14.00">ApplicationRecord</text>
</g>
<!-- Comment -->
<g id="node3" class="node"><title>Comment</title>
<path fill="none" stroke="black" d="M320,-0.5C320,-0.5 540,-0.5 540,-0.5 546,-0.5 552,-6.5 552,-12.5 552,-12.5 552,-109.5 552,-109.5 552,-115.5 546,-121.5 540,-121.5 540,-121.5 320,-121.5 320,-121.5 314,-121.5 308,-115.5 308,-109.5 308,-109.5 308,-12.5 308,-12.5 308,-6.5 314,-0.5 320,-0.5"/>
<text text-anchor="middle" x="430" y="-106.3" font-family="Times,serif" font-size="14.00">Comment</text>
<polyline fill="none" stroke="black" points="308,-98.5 552,-98.5 "/>
<text text-anchor="start" x="316" y="-83.3" font-family="Times,serif" font-size="14.00">id :integer</text>
<text text-anchor="start" x="316" y="-68.3" font-family="Times,serif" font-size="14.00">content :text</text>
<text text-anchor="start" x="316" y="-53.3" font-family="Times,serif" font-size="14.00">post_id :integer</text>
<text text-anchor="start" x="316" y="-38.3" font-family="Times,serif" font-size="14.00">created_at :timestamp without time zone</text>
<text text-anchor="start" x="316" y="-23.3" font-family="Times,serif" font-size="14.00">updated_at :timestamp without time zone</text>
<text text-anchor="start" x="316" y="-8.3" font-family="Times,serif" font-size="14.00">user_id :integer</text>
</g>
<!-- Post -->
<g id="node4" class="node"><title>Post</title>
<path fill="none" stroke="black" d="M582,-0.5C582,-0.5 802,-0.5 802,-0.5 808,-0.5 814,-6.5 814,-12.5 814,-12.5 814,-109.5 814,-109.5 814,-115.5 808,-121.5 802,-121.5 802,-121.5 582,-121.5 582,-121.5 576,-121.5 570,-115.5 570,-109.5 570,-109.5 570,-12.5 570,-12.5 570,-6.5 576,-0.5 582,-0.5"/>
<text text-anchor="middle" x="692" y="-106.3" font-family="Times,serif" font-size="14.00">Post</text>
<polyline fill="none" stroke="black" points="570,-98.5 814,-98.5 "/>
<text text-anchor="start" x="578" y="-83.3" font-family="Times,serif" font-size="14.00">id :integer</text>
<text text-anchor="start" x="578" y="-68.3" font-family="Times,serif" font-size="14.00">title :character varying</text>
<text text-anchor="start" x="578" y="-53.3" font-family="Times,serif" font-size="14.00">content :text</text>
<text text-anchor="start" x="578" y="-38.3" font-family="Times,serif" font-size="14.00">created_at :timestamp without time zone</text>
<text text-anchor="start" x="578" y="-23.3" font-family="Times,serif" font-size="14.00">updated_at :timestamp without time zone</text>
<text text-anchor="start" x="578" y="-8.3" font-family="Times,serif" font-size="14.00">user_id :integer</text>
</g>
<!-- User -->
<g id="node5" class="node"><title>User</title>
<path fill="none" stroke="black" d="M416.5,-158.5C416.5,-158.5 705.5,-158.5 705.5,-158.5 711.5,-158.5 717.5,-164.5 717.5,-170.5 717.5,-170.5 717.5,-402.5 717.5,-402.5 717.5,-408.5 711.5,-414.5 705.5,-414.5 705.5,-414.5 416.5,-414.5 416.5,-414.5 410.5,-414.5 404.5,-408.5 404.5,-402.5 404.5,-402.5 404.5,-170.5 404.5,-170.5 404.5,-164.5 410.5,-158.5 416.5,-158.5"/>
<text text-anchor="middle" x="561" y="-399.3" font-family="Times,serif" font-size="14.00">User</text>
<polyline fill="none" stroke="black" points="404.5,-391.5 717.5,-391.5 "/>
<text text-anchor="start" x="412.5" y="-376.3" font-family="Times,serif" font-size="14.00">id :integer</text>
<text text-anchor="start" x="412.5" y="-361.3" font-family="Times,serif" font-size="14.00">email :character varying</text>
<text text-anchor="start" x="412.5" y="-346.3" font-family="Times,serif" font-size="14.00">encrypted_password :character varying</text>
<text text-anchor="start" x="412.5" y="-331.3" font-family="Times,serif" font-size="14.00">reset_password_token :character varying</text>
<text text-anchor="start" x="412.5" y="-316.3" font-family="Times,serif" font-size="14.00">reset_password_sent_at :timestamp without time zone</text>
<text text-anchor="start" x="412.5" y="-301.3" font-family="Times,serif" font-size="14.00">remember_created_at :timestamp without time zone</text>
<text text-anchor="start" x="412.5" y="-286.3" font-family="Times,serif" font-size="14.00">sign_in_count :integer</text>
<text text-anchor="start" x="412.5" y="-271.3" font-family="Times,serif" font-size="14.00">current_sign_in_at :timestamp without time zone</text>
<text text-anchor="start" x="412.5" y="-256.3" font-family="Times,serif" font-size="14.00">last_sign_in_at :timestamp without time zone</text>
<text text-anchor="start" x="412.5" y="-241.3" font-family="Times,serif" font-size="14.00">current_sign_in_ip :inet</text>
<text text-anchor="start" x="412.5" y="-226.3" font-family="Times,serif" font-size="14.00">last_sign_in_ip :inet</text>
<text text-anchor="start" x="412.5" y="-211.3" font-family="Times,serif" font-size="14.00">name :character varying</text>
<text text-anchor="start" x="412.5" y="-196.3" font-family="Times,serif" font-size="14.00">role :integer</text>
<text text-anchor="start" x="412.5" y="-181.3" font-family="Times,serif" font-size="14.00">created_at :timestamp without time zone</text>
<text text-anchor="start" x="412.5" y="-166.3" font-family="Times,serif" font-size="14.00">updated_at :timestamp without time zone</text>
</g>
<!-- User&#45;&gt;Comment -->
<g id="edge2" class="edge"><title>User&#45;&gt;Comment</title>
<path fill="none" stroke="#644ecf" d="M482.314,-151.252C478.172,-144.186 474.104,-137.246 470.179,-130.549"/>
<ellipse fill="none" stroke="#644ecf" cx="484.484" cy="-154.955" rx="4.00002" ry="4.00002"/>
<polygon fill="#644ecf" stroke="#644ecf" points="469.979,-130.208 468.804,-119.305 467.45,-125.894 464.922,-121.581 464.922,-121.581 464.922,-121.581 467.45,-125.894 461.04,-123.856 469.979,-130.208 469.979,-130.208"/>
</g>
<!-- User&#45;&gt;Post -->
<g id="edge1" class="edge"><title>User&#45;&gt;Post</title>
<path fill="none" stroke="#ee7ecd" d="M639.686,-151.252C643.828,-144.186 647.896,-137.246 651.821,-130.549"/>
<ellipse fill="none" stroke="#ee7ecd" cx="637.516" cy="-154.955" rx="4.00002" ry="4.00002"/>
<polygon fill="#ee7ecd" stroke="#ee7ecd" points="652.021,-130.208 660.96,-123.856 654.55,-125.894 657.078,-121.581 657.078,-121.581 657.078,-121.581 654.55,-125.894 653.196,-119.305 652.021,-130.208 652.021,-130.208"/>
</g>
</g>
</svg>
